<svg width="66" height="836" viewBox="0 0 66 836" fill="none" xmlns="http://www.w3.org/2000/svg">
<path opacity="0.5" d="M18.34 15.04C24.46 14.86 30.7 14.86 37.54 14.86H39.52C45.88 14.86 52.12 14.86 58.18 15.04V19.12C58.18 28.3 51.16 33.7 38.26 33.7C25.72 33.7 18.34 28.3 18.34 18.7V15.04ZM60.52 0.7H58.36L57.82 6.4C51.76 6.52 45.7 6.52 39.52 6.52H37.54C30.76 6.52 24.58 6.52 18.64 6.4L18.1 0.7H16V18.94C16 33.34 24.34 42.52 38.32 42.52C52.24 42.52 60.52 34 60.52 20.02V0.7ZM34.42 56.2023C43.18 56.5623 46.84 59.8623 46.84 63.6423C46.84 67.3023 43.72 69.8823 38.86 69.8823C35.8 69.8823 34.42 69.2223 34.42 66.4623V56.2023ZM32.2 76.9623C33.22 77.2623 34.36 77.3823 35.92 77.3823C43.48 77.3823 49.06 72.4023 49.06 64.1823C49.06 55.7823 42.88 47.8623 32.08 47.8623C21.16 47.8623 15.04 54.7023 15.04 64.1223C15.04 70.0623 17.86 74.6223 22.78 77.0223L23.62 75.8223C20.8 73.7223 19 71.1423 19 66.8223C19 61.0023 23.02 56.4423 32.2 56.2023V76.9623ZM36.22 95.3969C37.72 90.7769 39.34 89.4569 41.86 89.4569C44.8 89.4569 46.72 91.7369 46.72 95.6969C46.72 97.4369 46.36 98.8169 45.64 100.257L39.16 102.117V105.177L46.36 105.597C48.1 102.297 49.06 99.3569 49.06 95.5169C49.06 87.2969 44.62 82.7969 38.86 82.7969C34 82.7969 31.12 85.9769 29.5 91.1369L28.42 94.4369C26.86 99.1169 25.18 100.497 22.54 100.497C19.24 100.497 17.38 97.9769 17.38 93.1769C17.38 91.1969 17.68 89.5169 18.34 87.9569L25.6 86.2769V82.7969L17.8 82.5569C16 85.9769 15.04 89.3369 15.04 93.6569C15.04 102.477 19.24 107.397 25.36 107.397C29.98 107.397 33.16 104.817 35.26 98.5169L36.22 95.3969ZM55.72 120.181C55.72 122.761 57.58 124.921 60.16 124.921C62.86 124.921 64.66 122.761 64.66 120.181C64.66 117.601 62.86 115.441 60.16 115.441C57.58 115.441 55.72 117.601 55.72 120.181ZM18.34 124.441C21.76 124.381 26.8 124.321 30.1 124.321H39.1L48.46 124.441L49 123.601L45.58 111.421H43.96L43.48 116.281C40.48 116.401 38.2 116.461 34.36 116.461H30.1C26.8 116.461 21.82 116.401 18.4 116.341L17.86 111.961H16L16 128.461H17.86L18.34 124.441ZM48.46 144.463L49 143.623L45.34 132.103H43.84L43.36 136.843C40.48 137.023 38.32 137.083 34.42 137.083H30.1C26.8 137.083 21.82 137.023 18.4 136.963L17.86 132.583H16V150.643H17.86L18.58 145.123C22 145.063 26.86 145.003 30.1 145.003H35.44C39.64 146.263 42.28 147.883 44.26 150.403L43.54 151.063C41.8 152.563 40.66 153.823 40.66 155.803C40.66 158.623 42.52 159.763 45.22 159.943C48.04 159.223 49.06 157.063 49.06 154.543C49.06 150.943 45.88 146.923 40.12 145.003L48.46 144.463ZM34.42 169.933C43.18 170.293 46.84 173.593 46.84 177.373C46.84 181.033 43.72 183.613 38.86 183.613C35.8 183.613 34.42 182.953 34.42 180.193V169.933ZM32.2 190.693C33.22 190.993 34.36 191.113 35.92 191.113C43.48 191.113 49.06 186.133 49.06 177.913C49.06 169.513 42.88 161.593 32.08 161.593C21.16 161.593 15.04 168.433 15.04 177.853C15.04 183.793 17.86 188.353 22.78 190.753L23.62 189.553C20.8 187.453 19 184.873 19 180.553C19 174.733 23.02 170.173 32.2 169.933V190.693ZM13.9 203.51C9.28 202.19 6.52 199.25 3.94 194.45L2.2 195.23C4.42 201.17 10.42 207.47 18.52 207.47C20.38 207.47 21.64 207.29 23.32 206.57C24.58 205.25 25 203.93 25 202.43C25 199.61 22.9 197.69 20.26 197.69C18.64 197.69 16.9 198.53 15.58 200.75L13.9 203.51ZM18.34 242.446C22.18 242.326 26.32 242.266 30.1 242.266H55.06L64.6 242.506L65.14 241.666L62.56 229.606H60.88L60.52 234.466H30.1C26.32 234.466 22.18 234.406 18.4 234.286L17.86 229.666H16V247.066H17.86L18.34 242.446ZM15.04 267.441C15.04 276.621 21.34 283.641 32.14 283.641C42.94 283.641 49.06 276.141 49.06 267.441C49.06 258.681 42.88 251.241 32.14 251.241C21.4 251.241 15.04 258.141 15.04 267.441ZM17.26 267.441C17.26 262.461 22.12 259.701 32.08 259.701C41.98 259.701 46.84 262.461 46.84 267.441C46.84 272.301 41.98 275.181 32.08 275.181C22.12 275.181 17.26 272.301 17.26 267.441ZM18.34 321.267C21.76 321.207 26.68 321.147 30.1 321.147H37.42C45.46 321.147 49.06 317.607 49.06 311.967C49.06 308.067 47.38 304.347 43 300.567L48.46 300.147L49 299.307L45.34 287.787H43.84L43.36 292.527C40.48 292.707 38.32 292.767 34.42 292.767H30.1C26.8 292.767 21.82 292.707 18.4 292.647L17.86 288.267H16V304.707H17.86L18.34 300.807C21.76 300.747 26.8 300.687 30.1 300.687H40.9C43.6 303.627 44.8 306.327 44.8 308.547C44.8 311.787 43 313.287 37.78 313.287H30.1C26.68 313.287 21.76 313.227 18.4 313.107L17.86 308.907H16V325.347H17.86L18.34 321.267ZM29.02 343.145C29.02 339.425 32.5 337.385 38.02 337.385C43.6 337.385 47.08 339.605 47.08 343.325C47.08 346.985 43.66 349.205 38.2 349.205C32.56 349.205 29.02 346.985 29.02 343.145ZM14.38 348.725C14.38 353.045 12.1 354.485 9.34 354.485C5.68 354.485 2.92 350.585 2.92 342.845C2.92 337.385 5.26 333.965 9.7 333.965C11.8 333.965 13.24 334.625 14.86 336.005C14.5 337.505 14.38 339.005 14.38 341.765L14.38 348.725ZM48.4 361.325L49.06 360.305L46.24 352.685C48.04 350.525 49.06 347.345 49.06 343.325C49.06 334.865 44.62 330.245 38.14 330.245C34 330.245 30.7 332.045 28.78 335.405C25.72 331.925 23.56 330.545 20.8 330.545C18.04 330.545 16.42 332.165 15.4 334.865C13.6 330.665 11.26 328.745 8.5 328.745C4 328.745 0.399999 332.585 0.399999 342.845C0.399999 354.665 5.92 360.845 12.22 360.845C17.62 360.845 21.04 357.365 21.04 348.785L21.04 339.965C21.04 336.605 22.18 335.405 24.34 335.405C25.72 335.405 26.86 335.825 28.12 336.725C27.4 338.525 26.98 340.685 26.98 343.205C26.98 351.605 31.6 356.285 38.14 356.285C40.6 356.285 42.82 355.625 44.56 354.305L44.02 361.325H48.4ZM55.72 373.072C55.72 375.652 57.58 377.812 60.16 377.812C62.86 377.812 64.66 375.652 64.66 373.072C64.66 370.492 62.86 368.332 60.16 368.332C57.58 368.332 55.72 370.492 55.72 373.072ZM18.34 377.332C21.76 377.272 26.8 377.212 30.1 377.212H39.1L48.46 377.332L49 376.492L45.58 364.312H43.96L43.48 369.172C40.48 369.292 38.2 369.352 34.36 369.352H30.1C26.8 369.352 21.82 369.292 18.4 369.232L17.86 364.852H16V381.352H17.86L18.34 377.332ZM18.34 418.474C21.76 418.414 26.68 418.354 30.1 418.354H37.42C45.46 418.354 49.06 414.814 49.06 409.174C49.06 405.274 47.38 401.554 43 397.774L48.46 397.354L49 396.514L45.34 384.994H43.84L43.36 389.734C40.48 389.914 38.32 389.974 34.42 389.974H30.1C26.8 389.974 21.82 389.914 18.4 389.854L17.86 385.474H16V401.914H17.86L18.34 398.014C21.76 397.954 26.8 397.894 30.1 397.894H40.9C43.6 400.834 44.8 403.534 44.8 405.754C44.8 408.994 43 410.494 37.78 410.494H30.1C26.68 410.494 21.76 410.434 18.4 410.314L17.86 406.114H16V422.554H17.86L18.34 418.474ZM29.02 440.352C29.02 436.632 32.5 434.592 38.02 434.592C43.6 434.592 47.08 436.812 47.08 440.532C47.08 444.192 43.66 446.412 38.2 446.412C32.56 446.412 29.02 444.192 29.02 440.352ZM14.38 445.932C14.38 450.252 12.1 451.692 9.34 451.692C5.68 451.692 2.92 447.792 2.92 440.052C2.92 434.592 5.26 431.172 9.7 431.172C11.8 431.172 13.24 431.832 14.86 433.212C14.5 434.712 14.38 436.212 14.38 438.972V445.932ZM48.4 458.532L49.06 457.512L46.24 449.892C48.04 447.732 49.06 444.552 49.06 440.532C49.06 432.072 44.62 427.452 38.14 427.452C34 427.452 30.7 429.252 28.78 432.612C25.72 429.132 23.56 427.752 20.8 427.752C18.04 427.752 16.42 429.372 15.4 432.072C13.6 427.872 11.26 425.952 8.5 425.952C4 425.952 0.399999 429.792 0.399999 440.052C0.399999 451.872 5.92 458.052 12.22 458.052C17.62 458.052 21.04 454.572 21.04 445.992V437.172C21.04 433.812 22.18 432.612 24.34 432.612C25.72 432.612 26.86 433.032 28.12 433.932C27.4 435.732 26.98 437.892 26.98 440.412C26.98 448.812 31.6 453.492 38.14 453.492C40.6 453.492 42.82 452.832 44.56 451.512L44.02 458.532H48.4ZM13.9 470.639C9.28 469.319 6.52 466.379 3.94 461.579L2.2 462.359C4.42 468.299 10.42 474.599 18.52 474.599C20.38 474.599 21.64 474.419 23.32 473.699C24.58 472.379 25 471.059 25 469.559C25 466.739 22.9 464.819 20.26 464.819C18.64 464.819 16.9 465.659 15.58 467.879L13.9 470.639ZM41.86 518.515C38.5 518.875 37.24 520.555 37.24 522.835C37.24 524.635 38.14 525.775 40.06 526.315C45.22 525.415 49.06 520.675 49.06 514.315C49.06 505.075 42.82 497.275 31.96 497.275C21.28 497.275 15.04 504.175 15.04 513.235C15.04 519.535 17.86 523.855 22.84 526.315L23.5 525.055C20.62 522.895 19 520.015 19 516.415C19 509.935 24.04 505.555 32.74 505.555C41.68 505.555 46.84 509.575 46.84 515.275C46.84 516.055 46.78 516.835 46.54 517.615L41.86 518.515ZM15.04 546.992C15.04 556.172 21.34 563.192 32.14 563.192C42.94 563.192 49.06 555.692 49.06 546.992C49.06 538.232 42.88 530.792 32.14 530.792C21.4 530.792 15.04 537.692 15.04 546.992ZM17.26 546.992C17.26 542.012 22.12 539.252 32.08 539.252C41.98 539.252 46.84 542.012 46.84 546.992C46.84 551.852 41.98 554.732 32.08 554.732C22.12 554.732 17.26 551.852 17.26 546.992ZM18.34 600.818C21.76 600.758 26.68 600.698 30.1 600.698H37.42C45.46 600.698 49.06 597.158 49.06 591.518C49.06 587.618 47.38 583.898 43 580.118L48.46 579.698L49 578.858L45.34 567.338H43.84L43.36 572.078C40.48 572.258 38.32 572.318 34.42 572.318H30.1C26.8 572.318 21.82 572.258 18.4 572.198L17.86 567.818H16L16 584.258H17.86L18.34 580.358C21.76 580.298 26.8 580.238 30.1 580.238H40.9C43.6 583.178 44.8 585.878 44.8 588.098C44.8 591.338 43 592.838 37.78 592.838H30.1C26.68 592.838 21.76 592.778 18.4 592.658L17.86 588.458H16V604.898H17.86L18.34 600.818ZM18.34 641.716C21.76 641.656 26.68 641.596 30.1 641.596H37.42C45.46 641.596 49.06 638.056 49.06 632.416C49.06 628.516 47.38 624.796 43 621.016L48.46 620.596L49 619.756L45.34 608.236H43.84L43.36 612.976C40.48 613.156 38.32 613.216 34.42 613.216H30.1C26.8 613.216 21.82 613.156 18.4 613.096L17.86 608.716H16V625.156H17.86L18.34 621.256C21.76 621.196 26.8 621.136 30.1 621.136H40.9C43.6 624.076 44.8 626.776 44.8 628.996C44.8 632.236 43 633.736 37.78 633.736H30.1C26.68 633.736 21.76 633.676 18.4 633.556L17.86 629.356H16V645.796H17.86L18.34 641.716ZM34.42 658.195C43.18 658.555 46.84 661.855 46.84 665.635C46.84 669.295 43.72 671.875 38.86 671.875C35.8 671.875 34.42 671.215 34.42 668.455V658.195ZM32.2 678.955C33.22 679.255 34.36 679.375 35.92 679.375C43.48 679.375 49.06 674.395 49.06 666.175C49.06 657.775 42.88 649.855 32.08 649.855C21.16 649.855 15.04 656.695 15.04 666.115C15.04 672.055 17.86 676.615 22.78 679.015L23.62 677.815C20.8 675.715 19 673.135 19 668.815C19 662.995 23.02 658.435 32.2 658.195V678.955ZM41.86 705.429C38.5 705.789 37.24 707.469 37.24 709.749C37.24 711.549 38.14 712.689 40.06 713.229C45.22 712.329 49.06 707.589 49.06 701.229C49.06 691.989 42.82 684.189 31.96 684.189C21.28 684.189 15.04 691.089 15.04 700.149C15.04 706.449 17.86 710.769 22.84 713.229L23.5 711.969C20.62 709.809 19 706.929 19 703.329C19 696.849 24.04 692.469 32.74 692.469C41.68 692.469 46.84 696.489 46.84 702.189C46.84 702.969 46.78 703.749 46.54 704.529L41.86 705.429ZM20.44 737.266C19.24 735.646 18.64 734.566 18.64 733.006C18.64 730.606 20.02 729.106 23.38 729.106H45.58V737.086H48.1V729.166L57.58 729.346V724.186L48.16 721.606L47.56 716.026H45.58V721.186H29.86C27.46 721.186 25.78 721.126 23.86 721.126C17.74 721.126 15.04 724.186 15.04 729.706C15.04 733.786 16.6 736.606 19.3 738.346L20.44 737.266ZM55.72 748.951C55.72 751.531 57.58 753.691 60.16 753.691C62.86 753.691 64.66 751.531 64.66 748.951C64.66 746.371 62.86 744.211 60.16 744.211C57.58 744.211 55.72 746.371 55.72 748.951ZM18.34 753.211C21.76 753.151 26.8 753.091 30.1 753.091H39.1L48.46 753.211L49 752.371L45.58 740.191H43.96L43.48 745.051C40.48 745.171 38.2 745.231 34.36 745.231H30.1C26.8 745.231 21.82 745.171 18.4 745.111L17.86 740.731H16V757.231H17.86L18.34 753.211ZM15.04 777.793C15.04 786.973 21.34 793.993 32.14 793.993C42.94 793.993 49.06 786.493 49.06 777.793C49.06 769.033 42.88 761.593 32.14 761.593C21.4 761.593 15.04 768.493 15.04 777.793ZM17.26 777.793C17.26 772.813 22.12 770.053 32.08 770.053C41.98 770.053 46.84 772.813 46.84 777.793C46.84 782.653 41.98 785.533 32.08 785.533C22.12 785.533 17.26 782.653 17.26 777.793ZM18.34 831.618C21.76 831.558 26.68 831.498 30.1 831.498H37.42C45.46 831.498 49.06 827.958 49.06 822.318C49.06 818.418 47.38 814.698 43 810.918L48.46 810.498L49 809.658L45.34 798.138H43.84L43.36 802.878C40.48 803.058 38.32 803.118 34.42 803.118H30.1C26.8 803.118 21.82 803.058 18.4 802.998L17.86 798.618H16L16 815.058H17.86L18.34 811.158C21.76 811.098 26.8 811.038 30.1 811.038H40.9C43.6 813.978 44.8 816.678 44.8 818.898C44.8 822.138 43 823.638 37.78 823.638H30.1C26.68 823.638 21.76 823.578 18.4 823.458L17.86 819.258H16V835.698H17.86L18.34 831.618Z" fill="#FDD2A8"/>
</svg>
