<svg width="348" height="82" viewBox="0 0 348 82" fill="none" xmlns="http://www.w3.org/2000/svg">
<path opacity="0.5" d="M38.44 4L41.48 16.32H45.8L45.72 0.639997H0.6V3.52L8.2 4.24C8.36 12.32 8.36 20.4 8.36 28.4V32.32C8.36 40.48 8.36 48.56 8.2 56.48L0.6 57.2V60H28.28V57.2L19.72 56.4C19.48 48.4 19.48 40.16 19.48 31.28H31.72L32.92 40.32H36.68V19.52H32.92L31.72 28.24H19.48C19.48 19.84 19.48 11.84 19.72 4H38.44ZM79.14 51.84C75.46 54.88 73.46 56.08 70.82 56.08C66.98 56.08 64.42 53.84 64.42 49.12C64.42 44.16 66.82 40.48 73.14 38C74.5 37.44 76.74 36.8 79.14 36.08V51.84ZM95.86 54.48C94.42 56.4 93.46 57.12 92.26 57.12C90.5 57.12 89.38 55.92 89.38 52.32V31.68C89.38 20.48 84.98 15.92 74.5 15.92C63.38 15.92 56.74 20.4 55.7 27.6C56.18 30 57.86 31.28 60.5 31.28C63.22 31.28 65.38 29.52 65.7 25.12L66.82 19.36C68.26 19.04 69.62 18.88 70.98 18.88C76.98 18.88 79.14 21.2 79.14 29.68V33.76C76.02 34.48 72.82 35.36 70.42 36.16C58.1 40 54.42 43.92 54.42 50.56C54.42 57.28 59.3 61.28 66.02 61.28C71.94 61.28 75.06 58.8 79.46 54.16C80.5 58.48 83.3 61.2 88.18 61.2C92.42 61.2 95.22 59.68 97.3 55.68L95.86 54.48ZM150.823 56.88C150.743 52.32 150.663 45.76 150.663 41.2V31.44C150.663 20.72 145.943 15.92 138.423 15.92C133.223 15.92 128.263 18.16 123.223 24L122.663 16.72L121.543 16L106.183 20.88V22.88L112.503 23.52C112.743 27.36 112.823 30.24 112.823 35.44V41.2C112.823 45.6 112.743 52.24 112.663 56.8L106.823 57.52V60H128.743V57.52L123.543 56.88C123.463 52.32 123.383 45.6 123.383 41.2V26.8C127.303 23.2 130.903 21.6 133.863 21.6C138.183 21.6 140.183 24 140.183 30.96V41.2C140.183 45.76 140.103 52.32 139.943 56.8L134.343 57.52V60H156.263V57.52L150.823 56.88ZM193.841 54.08C191.681 55.68 190.241 56.48 188.161 56.48C184.961 56.48 182.961 54.64 182.961 50.16V20.56H193.601V17.2H183.041L183.281 4.56H176.401L172.961 17.12L165.521 17.92V20.56H172.401V41.52C172.401 44.72 172.321 46.96 172.321 49.52C172.321 57.68 176.401 61.28 183.761 61.28C189.201 61.28 192.961 59.2 195.281 55.6L193.841 54.08ZM229.981 51.84C226.301 54.88 224.301 56.08 221.661 56.08C217.821 56.08 215.261 53.84 215.261 49.12C215.261 44.16 217.661 40.48 223.981 38C225.341 37.44 227.581 36.8 229.981 36.08V51.84ZM246.701 54.48C245.261 56.4 244.301 57.12 243.101 57.12C241.341 57.12 240.221 55.92 240.221 52.32V31.68C240.221 20.48 235.821 15.92 225.341 15.92C214.221 15.92 207.581 20.4 206.541 27.6C207.021 30 208.701 31.28 211.341 31.28C214.061 31.28 216.221 29.52 216.541 25.12L217.661 19.36C219.101 19.04 220.461 18.88 221.821 18.88C227.821 18.88 229.981 21.2 229.981 29.68V33.76C226.861 34.48 223.661 35.36 221.261 36.16C208.941 40 205.261 43.92 205.261 50.56C205.261 57.28 210.141 61.28 216.861 61.28C222.781 61.28 225.901 58.8 230.301 54.16C231.341 58.48 234.141 61.2 239.021 61.2C243.261 61.2 246.061 59.68 248.141 55.68L246.701 54.48ZM275.503 33.04C269.343 31.04 267.583 28.88 267.583 25.52C267.583 21.6 270.623 19.04 275.903 19.04C278.223 19.04 280.063 19.52 281.983 20.48L284.463 29.12H288.543L289.103 19.52C284.703 17.2 280.783 15.92 275.663 15.92C264.703 15.92 258.703 21.84 258.703 29.52C258.703 36 262.943 39.84 269.823 42L274.223 43.44C280.463 45.52 282.303 47.76 282.303 51.28C282.303 55.68 278.943 58.16 272.543 58.16C269.903 58.16 267.663 57.76 265.583 56.88L263.343 47.2H258.703L258.383 57.6C262.943 60 267.423 61.28 273.183 61.28C284.943 61.28 291.503 55.68 291.503 47.52C291.503 41.36 288.063 37.12 279.663 34.32L275.503 33.04ZM347.196 17.2H330.556V19.68L338.076 20.48L327.676 51.2L316.396 20.4L322.956 19.68V17.2H300.236V19.68L304.956 20.16L322.876 63.68C320.476 69.6 318.076 73.84 314.636 76.64L313.516 75.36C311.436 72.96 309.436 71.44 306.476 71.44C303.676 71.44 300.796 72.88 300.316 75.92C300.396 79.28 304.396 81.68 308.636 81.68C314.076 81.68 320.556 77.28 325.596 63.92L341.996 20.4L347.196 19.68V17.2Z" fill="#FDD2A8"/>
</svg>
