<svg width="320" height="88" viewBox="0 0 320 88" fill="none" xmlns="http://www.w3.org/2000/svg">
<path opacity="0.3" d="M19.6138 35.12C19.6138 25.92 19.6138 17.84 19.8538 9.76H25.6938C34.2538 9.76 38.5738 14.16 38.5738 21.92C38.5738 29.36 34.5738 35.12 25.4538 35.12H19.6138ZM49.2138 62.64L45.9338 49.2C44.3338 41.76 41.5338 37.84 32.8938 36.64C44.5738 34.8 49.2938 28.64 49.2938 21.84C49.2938 12.32 41.6138 6.64 27.9338 6.64H0.893762V9.52L8.49376 10.24C8.65376 18.32 8.65376 26.4 8.65376 34.4V38.32C8.65376 46.48 8.65376 54.56 8.49376 62.48L0.893762 63.2V66H27.6138V63.2L19.8538 62.48C19.6138 54.56 19.6138 46.48 19.6138 38.08H24.0138C30.6538 38.08 32.8938 40.8 34.2538 47.44L37.1338 59.76C38.0138 65.2 41.4538 67.04 47.9338 67.04C51.4538 67.04 53.6938 66.72 56.2538 66V63.2L49.2138 62.64ZM76.6875 41.44C77.1675 29.76 81.5675 24.88 86.6075 24.88C91.4875 24.88 94.9275 29.04 94.9275 35.52C94.9275 39.6 94.0475 41.44 90.3675 41.44H76.6875ZM104.368 44.4C104.768 43.04 104.928 41.52 104.928 39.44C104.928 29.36 98.2875 21.92 87.3275 21.92C76.1275 21.92 65.5675 30.16 65.5675 44.56C65.5675 59.12 74.6875 67.28 87.2475 67.28C95.1675 67.28 101.248 63.52 104.448 56.96L102.848 55.84C100.048 59.6 96.6075 62 90.8475 62C83.0875 62 77.0075 56.64 76.6875 44.4H104.368ZM142.553 57.84C138.873 60.88 136.873 62.08 134.233 62.08C130.393 62.08 127.833 59.84 127.833 55.12C127.833 50.16 130.233 46.48 136.553 44C137.913 43.44 140.153 42.8 142.553 42.08V57.84ZM159.273 60.48C157.833 62.4 156.873 63.12 155.673 63.12C153.913 63.12 152.793 61.92 152.793 58.32V37.68C152.793 26.48 148.393 21.92 137.913 21.92C126.793 21.92 120.153 26.4 119.113 33.6C119.593 36 121.273 37.28 123.913 37.28C126.633 37.28 128.793 35.52 129.113 31.12L130.233 25.36C131.673 25.04 133.033 24.88 134.393 24.88C140.393 24.88 142.553 27.2 142.553 35.68V39.76C139.433 40.48 136.233 41.36 133.833 42.16C121.513 46 117.833 49.92 117.833 56.56C117.833 63.28 122.713 67.28 129.433 67.28C135.353 67.28 138.473 64.8 142.873 60.16C143.913 64.48 146.713 67.2 151.593 67.2C155.833 67.2 158.633 65.68 160.713 61.68L159.273 60.48ZM186.875 62.88C186.715 57.76 186.635 52.24 186.635 47.2V13.92L186.955 1.2L185.835 0.479995L169.755 3.92V6.16L176.235 6.64V47.2C176.235 52.24 176.155 57.76 175.995 62.8L169.835 63.52V66H193.035V63.52L186.875 62.88ZM215.802 13.04C219.242 13.04 222.122 10.56 222.122 7.12C222.122 3.52 219.242 1.12 215.802 1.12C212.362 1.12 209.482 3.52 209.482 7.12C209.482 10.56 212.362 13.04 215.802 13.04ZM221.482 62.88C221.402 58.32 221.322 51.6 221.322 47.2V35.2L221.482 22.72L220.362 22L204.122 26.56V28.72L210.602 29.36C210.762 33.36 210.842 36.4 210.842 41.52V47.2C210.842 51.6 210.762 58.24 210.682 62.8L204.842 63.52V66H226.842V63.52L221.482 62.88ZM265.138 60.08C262.978 61.68 261.538 62.48 259.458 62.48C256.258 62.48 254.258 60.64 254.258 56.16V26.56H264.898V23.2H254.338L254.578 10.56H247.698L244.258 23.12L236.818 23.92V26.56H243.698V47.52C243.698 50.72 243.618 52.96 243.618 55.52C243.618 63.68 247.698 67.28 255.058 67.28C260.498 67.28 264.258 65.2 266.578 61.6L265.138 60.08ZM319.678 23.2H303.038V25.68L310.558 26.48L300.158 57.2L288.878 26.4L295.438 25.68V23.2H272.718V25.68L277.438 26.16L295.358 69.68C292.958 75.6 290.558 79.84 287.118 82.64L285.998 81.36C283.918 78.96 281.918 77.44 278.958 77.44C276.158 77.44 273.278 78.88 272.798 81.92C272.878 85.28 276.878 87.68 281.118 87.68C286.558 87.68 293.038 83.28 298.078 69.92L314.478 26.4L319.678 25.68V23.2Z" fill="#D98A3B"/>
</svg>
