<svg width="487" height="67" viewBox="0 0 487 67" fill="none" xmlns="http://www.w3.org/2000/svg">
<path opacity="0.3" d="M19.92 28.84C14 26.28 10.72 23.16 10.72 17.56C10.72 11.24 15.6 7.72 22.64 7.72C24.96 7.72 26.8 8.04 28.64 8.92L32 21.24H36.48L37.04 8.68C32.88 5.96 27.76 4.2 21.52 4.2C9.44 4.2 0.8 10.2 0.8 20.76C0.8 29.96 6.56 35.16 16.64 39.56L20.32 41.16C27.36 44.12 30.08 46.92 30.08 52.52C30.08 59.16 25.12 63 16.96 63C13.6 63 11.04 62.6 8.32 61.4L4.96 48.52H0.48L5.96046e-08 61.8C4.48 64.68 11.36 66.52 18 66.52C31.84 66.52 40.08 59.56 40.08 49.08C40.08 40.44 35.76 35.64 23.92 30.52L19.92 28.84ZM64.1438 40.44C64.6238 28.76 69.0238 23.88 74.0638 23.88C78.9438 23.88 82.3838 28.04 82.3838 34.52C82.3838 38.6 81.5038 40.44 77.8238 40.44H64.1438ZM91.8238 43.4C92.2238 42.04 92.3838 40.52 92.3838 38.44C92.3838 28.36 85.7438 20.92 74.7838 20.92C63.5838 20.92 53.0238 29.16 53.0238 43.56C53.0238 58.12 62.1438 66.28 74.7038 66.28C82.6238 66.28 88.7038 62.52 91.9038 55.96L90.3038 54.84C87.5038 58.6 84.0638 61 78.3038 61C70.5438 61 64.4638 55.64 64.1438 43.4H91.8238ZM148.963 61.88C148.883 57.32 148.803 50.76 148.803 46.2V36.44C148.803 25.72 144.083 20.92 136.563 20.92C131.363 20.92 126.403 23.16 121.363 29L120.803 21.72L119.683 21L104.323 25.88V27.88L110.643 28.52C110.883 32.36 110.963 35.24 110.963 40.44V46.2C110.963 50.6 110.883 57.24 110.803 61.8L104.963 62.52V65H126.883V62.52L121.683 61.88C121.603 57.32 121.523 50.6 121.523 46.2V31.8C125.443 28.2 129.043 26.6 132.003 26.6C136.323 26.6 138.323 29 138.323 35.96V46.2C138.323 50.76 138.243 57.32 138.083 61.8L132.483 62.52V65H154.403V62.52L148.963 61.88ZM183.734 38.04C177.574 36.04 175.814 33.88 175.814 30.52C175.814 26.6 178.854 24.04 184.134 24.04C186.454 24.04 188.294 24.52 190.214 25.48L192.694 34.12H196.774L197.334 24.52C192.934 22.2 189.014 20.92 183.894 20.92C172.934 20.92 166.934 26.84 166.934 34.52C166.934 41 171.174 44.84 178.054 47L182.454 48.44C188.694 50.52 190.534 52.76 190.534 56.28C190.534 60.68 187.174 63.16 180.774 63.16C178.134 63.16 175.894 62.76 173.814 61.88L171.574 52.2H166.934L166.614 62.6C171.174 65 175.654 66.28 181.414 66.28C193.174 66.28 199.734 60.68 199.734 52.52C199.734 46.36 196.294 42.12 187.894 39.32L183.734 38.04ZM237.028 56.84C233.348 59.88 231.348 61.08 228.708 61.08C224.868 61.08 222.308 58.84 222.308 54.12C222.308 49.16 224.708 45.48 231.028 43C232.388 42.44 234.628 41.8 237.028 41.08V56.84ZM253.748 59.48C252.308 61.4 251.348 62.12 250.148 62.12C248.388 62.12 247.268 60.92 247.268 57.32V36.68C247.268 25.48 242.868 20.92 232.388 20.92C221.268 20.92 214.628 25.4 213.588 32.6C214.068 35 215.748 36.28 218.388 36.28C221.108 36.28 223.268 34.52 223.588 30.12L224.708 24.36C226.148 24.04 227.508 23.88 228.868 23.88C234.868 23.88 237.028 26.2 237.028 34.68V38.76C233.908 39.48 230.708 40.36 228.308 41.16C215.988 45 212.308 48.92 212.308 55.56C212.308 62.28 217.188 66.28 223.908 66.28C229.828 66.28 232.948 63.8 237.348 59.16C238.388 63.48 241.188 66.2 246.068 66.2C250.308 66.2 253.108 64.68 255.188 60.68L253.748 59.48ZM291.11 59.08C288.95 60.68 287.51 61.48 285.43 61.48C282.23 61.48 280.23 59.64 280.23 55.16V25.56H290.87V22.2H280.31L280.55 9.56H273.67L270.23 22.12L262.79 22.92V25.56H269.67V46.52C269.67 49.72 269.59 51.96 269.59 54.52C269.59 62.68 273.67 66.28 281.03 66.28C286.47 66.28 290.23 64.2 292.55 60.6L291.11 59.08ZM313.089 12.04C316.529 12.04 319.409 9.56 319.409 6.12C319.409 2.52 316.529 0.119996 313.089 0.119996C309.649 0.119996 306.769 2.52 306.769 6.12C306.769 9.56 309.649 12.04 313.089 12.04ZM318.769 61.88C318.689 57.32 318.609 50.6 318.609 46.2V34.2L318.769 21.72L317.649 21L301.409 25.56V27.72L307.889 28.36C308.049 32.36 308.129 35.4 308.129 40.52V46.2C308.129 50.6 308.049 57.24 307.969 61.8L302.129 62.52V65H324.129V62.52L318.769 61.88ZM357.946 66.28C370.186 66.28 379.546 57.88 379.546 43.48C379.546 29.08 369.546 20.92 357.946 20.92C346.266 20.92 336.346 29.16 336.346 43.48C336.346 57.8 345.546 66.28 357.946 66.28ZM357.946 63.32C351.306 63.32 347.626 56.84 347.626 43.56C347.626 30.36 351.306 23.88 357.946 23.88C364.426 23.88 368.266 30.36 368.266 43.56C368.266 56.84 364.426 63.32 357.946 63.32ZM436.113 61.88C436.033 57.32 435.953 50.76 435.953 46.2V36.44C435.953 25.72 431.233 20.92 423.713 20.92C418.513 20.92 413.553 23.16 408.513 29L407.953 21.72L406.833 21L391.473 25.88V27.88L397.793 28.52C398.033 32.36 398.113 35.24 398.113 40.44V46.2C398.113 50.6 398.033 57.24 397.953 61.8L392.113 62.52V65H414.033V62.52L408.833 61.88C408.753 57.32 408.673 50.6 408.673 46.2V31.8C412.593 28.2 416.193 26.6 419.153 26.6C423.473 26.6 425.473 29 425.473 35.96V46.2C425.473 50.76 425.393 57.32 425.233 61.8L419.633 62.52V65H441.553V62.52L436.113 61.88ZM470.884 38.04C464.724 36.04 462.964 33.88 462.964 30.52C462.964 26.6 466.004 24.04 471.284 24.04C473.604 24.04 475.444 24.52 477.364 25.48L479.844 34.12H483.924L484.484 24.52C480.084 22.2 476.164 20.92 471.044 20.92C460.084 20.92 454.084 26.84 454.084 34.52C454.084 41 458.324 44.84 465.204 47L469.604 48.44C475.844 50.52 477.684 52.76 477.684 56.28C477.684 60.68 474.324 63.16 467.924 63.16C465.284 63.16 463.044 62.76 460.964 61.88L458.724 52.2H454.084L453.764 62.6C458.324 65 462.804 66.28 468.564 66.28C480.324 66.28 486.884 60.68 486.884 52.52C486.884 46.36 483.444 42.12 475.044 39.32L470.884 38.04Z" fill="#D98A3B"/>
</svg>
