<svg width="67" height="740" viewBox="0 0 67 740" fill="none" xmlns="http://www.w3.org/2000/svg">
<path opacity="0.3" d="M5.48 675.44L5.48 690.02H7.64L8.42 684.2L40.46 692.54L8.36 701.9L7.64 695.42H5.48V714.14H7.64L8.36 708.14L40.22 717.62L8.24 726.02L7.64 720.2H5.48V739.34H7.64L8.12 734.72L50.24 722.48V718.1L15.98 707.78L50.24 697.1V692.78L8.42 681.08L7.64 675.44H5.48ZM50.96 661.574C50.96 652.394 44.66 645.374 33.86 645.374C23.06 645.374 16.94 652.874 16.94 661.574C16.94 670.334 23.12 677.774 33.86 677.774C44.6 677.774 50.96 670.874 50.96 661.574ZM48.74 661.574C48.74 666.554 43.88 669.314 33.92 669.314C24.02 669.314 19.16 666.554 19.16 661.574C19.16 656.714 24.02 653.834 33.92 653.834C43.88 653.834 48.74 656.714 48.74 661.574ZM47.66 607.749C44.24 607.809 39.32 607.869 35.9 607.869H28.58C20.54 607.869 16.94 611.409 16.94 617.049C16.94 620.949 18.62 624.669 23 628.449L17.54 628.869L17 629.709L20.66 641.229H22.16L22.64 636.489C25.52 636.309 27.68 636.249 31.58 636.249H35.9C39.2 636.249 44.18 636.309 47.6 636.369L48.14 640.749H50V624.309H48.14L47.66 628.209C44.24 628.269 39.2 628.329 35.9 628.329H25.1C22.4 625.389 21.2 622.689 21.2 620.469C21.2 617.229 23 615.729 28.22 615.729H35.9C39.32 615.729 44.24 615.789 47.6 615.909L48.14 620.109H50V603.669H48.14L47.66 607.749ZM44.72 576.75C46.46 578.61 47.12 580.41 47.12 582.57C47.12 587.55 43.46 591.21 33.92 591.21C24.08 591.21 20.72 587.19 20.72 582.45C20.72 580.59 21.32 578.73 23 576.75H44.72ZM47.78 568.83H10.88L1.4 568.65L0.859996 569.49L3.44 581.61H5.12L5.54 576.45H21.14C18.2 578.91 16.94 581.79 16.94 585.09C16.94 593.31 23.42 599.61 34.28 599.61C44.6 599.61 50.96 593.73 50.96 585.87C50.96 582.03 49.4 578.97 46.64 576.57L50.66 576.15L50 564.33H48.14L47.78 568.83ZM31.58 552.071C22.82 551.711 19.16 548.411 19.16 544.631C19.16 540.971 22.28 538.391 27.14 538.391C30.2 538.391 31.58 539.051 31.58 541.811V552.071ZM33.8 531.311C32.78 531.011 31.64 530.891 30.08 530.891C22.52 530.891 16.94 535.871 16.94 544.091C16.94 552.491 23.12 560.411 33.92 560.411C44.84 560.411 50.96 553.571 50.96 544.151C50.96 538.211 48.14 533.651 43.22 531.251L42.38 532.451C45.2 534.551 47 537.131 47 541.451C47 547.271 42.98 551.831 33.8 552.071V531.311ZM17.54 514.377L17 515.217L20.66 526.737H22.16L22.64 521.997C25.52 521.817 27.68 521.757 31.58 521.757H35.9C39.2 521.757 44.18 521.817 47.6 521.877L48.14 526.257H50V508.197H48.14L47.42 513.717C44 513.777 39.14 513.837 35.9 513.837H30.56C26.36 512.577 23.72 510.957 21.74 508.437L22.46 507.777C24.2 506.277 25.34 505.017 25.34 503.037C25.34 500.217 23.48 499.077 20.78 498.897C17.96 499.617 16.94 501.777 16.94 504.297C16.94 507.897 20.12 511.917 25.88 513.837L17.54 514.377ZM52.1 494.119C56.72 495.439 59.48 498.379 62.06 503.179L63.8 502.399C61.58 496.459 55.58 490.159 47.48 490.159C45.62 490.159 44.36 490.339 42.68 491.059C41.42 492.379 41 493.699 41 495.199C41 498.019 43.1 499.939 45.74 499.939C47.36 499.939 49.1 499.099 50.42 496.879L52.1 494.119ZM23.3 455.363C21.08 452.843 20.66 450.923 20.66 448.883C20.66 444.143 24.62 440.723 33.8 440.723C44.12 440.723 47.12 444.623 47.12 449.123C47.12 451.283 46.4 453.323 44.54 455.363H23.3ZM10.94 455.483L1.4 455.243L0.859996 456.143L3.44 468.023H5.12L5.54 463.163H35.9C39.2 463.163 44.18 463.223 47.66 463.283L48.14 467.663H50L50.72 456.563L46.52 455.603C49.76 452.843 50.96 449.423 50.96 446.003C50.96 437.843 43.7 432.323 33.74 432.323C23 432.323 16.94 437.963 16.94 445.343C16.94 448.943 18.32 452.483 21.5 455.483H10.94ZM31.58 418.829C22.82 418.469 19.16 415.169 19.16 411.389C19.16 407.729 22.28 405.149 27.14 405.149C30.2 405.149 31.58 405.809 31.58 408.569V418.829ZM33.8 398.069C32.78 397.769 31.64 397.649 30.08 397.649C22.52 397.649 16.94 402.629 16.94 410.849C16.94 419.249 23.12 427.169 33.92 427.169C44.84 427.169 50.96 420.329 50.96 410.909C50.96 404.969 48.14 400.409 43.22 398.009L42.38 399.209C45.2 401.309 47 403.889 47 408.209C47 414.029 42.98 418.589 33.8 418.829V398.069ZM43.88 374.23C46.16 376.99 47.06 378.49 47.06 380.47C47.06 383.35 45.38 385.27 41.84 385.27C38.12 385.27 35.36 383.47 33.5 378.73C33.08 377.71 32.6 376.03 32.06 374.23H43.88ZM45.86 361.69C47.3 362.77 47.84 363.49 47.84 364.39C47.84 365.71 46.94 366.55 44.24 366.55H28.76C20.36 366.55 16.94 369.85 16.94 377.71C16.94 386.05 20.3 391.03 25.7 391.81C27.5 391.45 28.46 390.19 28.46 388.21C28.46 386.17 27.14 384.55 23.84 384.31L19.52 383.47C19.28 382.39 19.16 381.37 19.16 380.35C19.16 375.85 20.9 374.23 27.26 374.23H30.32C30.86 376.57 31.52 378.97 32.12 380.77C35 390.01 37.94 392.77 42.92 392.77C47.96 392.77 50.96 389.11 50.96 384.07C50.96 379.63 49.1 377.29 45.62 373.99C48.86 373.21 50.9 371.11 50.9 367.45C50.9 364.27 49.76 362.17 46.76 360.61L45.86 361.69ZM47.78 326.578H27.56L17.96 326.398L17.3 327.058L18.98 338.638H20.54L21.32 334.378L42.68 334.498C44.9 336.718 46.22 339.238 46.22 341.938C46.22 345.238 44.48 347.098 39.2 347.098H27.56L17.96 346.738L17.3 347.398L18.86 359.278H20.54L21.38 354.778L38.78 355.018C47.78 355.138 50.96 351.538 50.96 345.778C50.96 341.338 48.32 337.318 44.66 334.438L50.66 334.018L50 322.498H48.2L47.78 326.578ZM45.56 298.566C46.76 300.186 47.36 301.266 47.36 302.826C47.36 305.226 45.98 306.726 42.62 306.726H20.42V298.746H17.9V306.666L8.42 306.486V311.646L17.84 314.226L18.44 319.806H20.42V314.646H36.14C38.54 314.646 40.22 314.706 42.14 314.706C48.26 314.706 50.96 311.646 50.96 306.126C50.96 302.046 49.4 299.226 46.7 297.486L45.56 298.566ZM17.9 262.461V274.941H19.76L20.36 269.301L43.4 277.101L20.3 285.561L19.76 280.641H17.9V297.681H19.76L20.12 294.141L52.76 280.701C57.2 282.501 60.38 284.301 62.48 286.881L61.52 287.721C59.72 289.281 58.58 290.781 58.58 293.001C58.58 295.101 59.66 297.261 61.94 297.621C64.46 297.561 66.26 294.561 66.26 291.381C66.26 287.301 62.96 282.441 52.94 278.661L20.3 266.361L19.76 262.461H17.9ZM43.88 226.281C46.16 229.041 47.06 230.541 47.06 232.521C47.06 235.401 45.38 237.321 41.84 237.321C38.12 237.321 35.36 235.521 33.5 230.781C33.08 229.761 32.6 228.081 32.06 226.281H43.88ZM45.86 213.741C47.3 214.821 47.84 215.541 47.84 216.441C47.84 217.761 46.94 218.601 44.24 218.601H28.76C20.36 218.601 16.94 221.901 16.94 229.761C16.94 238.101 20.3 243.081 25.7 243.861C27.5 243.501 28.46 242.241 28.46 240.261C28.46 238.221 27.14 236.601 23.84 236.361L19.52 235.521C19.28 234.441 19.16 233.421 19.16 232.401C19.16 227.901 20.9 226.281 27.26 226.281H30.32C30.86 228.621 31.52 231.021 32.12 232.821C35 242.061 37.94 244.821 42.92 244.821C47.96 244.821 50.96 241.161 50.96 236.121C50.96 231.681 49.1 229.341 45.62 226.041C48.86 225.261 50.9 223.161 50.9 219.501C50.9 216.321 49.76 214.221 46.76 212.661L45.86 213.741ZM47.66 177.319C44.24 177.379 39.32 177.439 35.9 177.439H28.58C20.54 177.439 16.94 180.979 16.94 186.619C16.94 190.519 18.62 194.239 23 198.019L17.54 198.439L17 199.279L20.66 210.799H22.16L22.64 206.059C25.52 205.879 27.68 205.819 31.58 205.819H35.9C39.2 205.819 44.18 205.879 47.6 205.939L48.14 210.319H50V193.879H48.14L47.66 197.779C44.24 197.839 39.2 197.899 35.9 197.899H25.1C22.4 194.959 21.2 192.259 21.2 190.039C21.2 186.799 23 185.299 28.22 185.299H35.9C39.32 185.299 44.24 185.359 47.6 185.479L48.14 189.679H50V173.239H48.14L47.66 177.319ZM44.72 146.321C46.46 148.181 47.12 149.981 47.12 152.141C47.12 157.121 43.46 160.781 33.92 160.781C24.08 160.781 20.72 156.761 20.72 152.021C20.72 150.161 21.32 148.301 23 146.321H44.72ZM47.78 138.401H10.88L1.4 138.221L0.859996 139.061L3.44 151.181H5.12L5.54 146.021H21.14C18.2 148.481 16.94 151.361 16.94 154.661C16.94 162.881 23.42 169.181 34.28 169.181C44.6 169.181 50.96 163.301 50.96 155.441C50.96 151.601 49.4 148.541 46.64 146.141L50.66 145.721L50 133.901H48.14L47.78 138.401ZM43.88 96.2028C46.16 98.9628 47.06 100.463 47.06 102.443C47.06 105.323 45.38 107.243 41.84 107.243C38.12 107.243 35.36 105.443 33.5 100.703C33.08 99.6828 32.6 98.0028 32.06 96.2028H43.88ZM45.86 83.6628C47.3 84.7428 47.84 85.4628 47.84 86.3628C47.84 87.6828 46.94 88.5228 44.24 88.5228H28.76C20.36 88.5228 16.94 91.8228 16.94 99.6828C16.94 108.023 20.3 113.003 25.7 113.783C27.5 113.423 28.46 112.163 28.46 110.183C28.46 108.143 27.14 106.523 23.84 106.283L19.52 105.443C19.28 104.363 19.16 103.343 19.16 102.323C19.16 97.8228 20.9 96.2028 27.26 96.2028H30.32C30.86 98.5428 31.52 100.943 32.12 102.743C35 111.983 37.94 114.743 42.92 114.743C47.96 114.743 50.96 111.083 50.96 106.043C50.96 101.603 49.1 99.2628 45.62 95.9628C48.86 95.1828 50.9 93.0828 50.9 89.4228C50.9 86.2428 49.76 84.1428 46.76 82.5828L45.86 83.6628ZM17.9 31.7328V44.0328H19.82L20.54 38.6328L41.96 45.0528L20.42 52.6128L19.82 47.9328H17.9V62.8728H19.82L20.36 58.1328L42.32 65.4528L20.3 72.4128L19.82 67.5528H17.9V83.9928H19.82L20.24 80.5728L50.18 69.7728V66.4128L26.3 57.7728C31.1 56.3328 37.1 54.1728 50.18 49.3128V45.9528L20.48 35.8128L19.82 31.7328H17.9ZM31.58 22.0906C22.82 21.7306 19.16 18.4306 19.16 14.6506C19.16 10.9906 22.28 8.41062 27.14 8.41062C30.2 8.41062 31.58 9.07062 31.58 11.8306V22.0906ZM33.8 1.33062C32.78 1.03062 31.64 0.910622 30.08 0.910622C22.52 0.910622 16.94 5.89062 16.94 14.1106C16.94 22.5106 23.12 30.4306 33.92 30.4306C44.84 30.4306 50.96 23.5906 50.96 14.1706C50.96 8.23062 48.14 3.67062 43.22 1.27062L42.38 2.47062C45.2 4.57062 47 7.15062 47 11.4706C47 17.2906 42.98 21.8506 33.8 22.0906V1.33062Z" fill="#D98A3B"/>
</svg>
