<svg width="60" height="60" viewBox="0 0 60 60" fill="none" xmlns="http://www.w3.org/2000/svg">
<path d="M24.929 30.3824C24.929 27.3666 27.3746 24.9211 30.3922 24.9211C33.4098 24.9211 35.8567 27.3666 35.8567 30.3824C35.8567 33.3982 33.4098 35.8436 30.3922 35.8436C27.3746 35.8436 24.929 33.3982 24.929 30.3824ZM21.975 30.3824C21.975 35.0284 25.7434 38.7945 30.3922 38.7945C35.041 38.7945 38.8094 35.0284 38.8094 30.3824C38.8094 25.7363 35.041 21.9702 30.3922 21.9702C25.7434 21.9702 21.975 25.7363 21.975 30.3824ZM37.1756 21.6367C37.1754 22.0255 37.2906 22.4056 37.5066 22.729C37.7227 23.0524 38.0298 23.3045 38.3891 23.4534C38.7485 23.6023 39.144 23.6414 39.5256 23.5657C39.9072 23.49 40.2578 23.3029 40.533 23.0281C40.8082 22.7533 40.9957 22.4031 41.0717 22.0218C41.1478 21.6404 41.109 21.2452 40.9603 20.8859C40.8115 20.5266 40.5595 20.2195 40.2361 20.0033C39.9127 19.7872 39.5325 19.6717 39.1434 19.6716H39.1426C38.6211 19.6718 38.1211 19.8789 37.7522 20.2474C37.3834 20.6158 37.176 21.1155 37.1756 21.6367V21.6367ZM23.7698 43.7172C22.1716 43.6445 21.3029 43.3785 20.7257 43.1537C19.9603 42.8559 19.4143 42.5013 18.8402 41.9283C18.266 41.3553 17.9107 40.8101 17.614 40.0452C17.389 39.4686 17.1228 38.6002 17.0501 37.003C16.9707 35.2761 16.9548 34.7574 16.9548 30.3825C16.9548 26.0076 16.972 25.4903 17.0501 23.7621C17.1229 22.1648 17.3911 21.2982 17.614 20.7198C17.912 19.9549 18.2668 19.4092 18.8402 18.8354C19.4135 18.2616 19.959 17.9065 20.7257 17.61C21.3027 17.3851 22.1716 17.1191 23.7698 17.0465C25.4976 16.967 26.0167 16.9512 30.3922 16.9512C34.7677 16.9512 35.2873 16.9684 37.0166 17.0465C38.6148 17.1192 39.482 17.3872 40.0607 17.61C40.826 17.9065 41.3721 18.2624 41.9462 18.8354C42.5203 19.4084 42.8744 19.9549 43.1724 20.7198C43.3974 21.2964 43.6636 22.1648 43.7362 23.7621C43.8157 25.4903 43.8316 26.0076 43.8316 30.3825C43.8316 34.7574 43.8157 35.2747 43.7362 37.003C43.6635 38.6002 43.3959 39.4683 43.1724 40.0452C42.8744 40.8101 42.5196 41.3558 41.9462 41.9283C41.3729 42.5007 40.826 42.8559 40.0607 43.1537C39.4837 43.3786 38.6148 43.6446 37.0166 43.7172C35.2888 43.7967 34.7697 43.8125 30.3922 43.8125C26.0147 43.8125 25.4971 43.7967 23.7698 43.7172V43.7172ZM23.634 14.0992C21.889 14.1786 20.6965 14.4552 19.6552 14.8601C18.5767 15.2783 17.6637 15.8394 16.7514 16.7497C15.8391 17.6601 15.2791 18.574 14.8607 19.6518C14.4554 20.6932 14.1787 21.8842 14.0993 23.6283C14.0185 25.375 14 25.9334 14 30.3824C14 34.8313 14.0185 35.3897 14.0993 37.1365C14.1787 38.8806 14.4554 40.0716 14.8607 41.113C15.2791 42.1901 15.8392 43.1051 16.7514 44.015C17.6636 44.9249 18.5767 45.4852 19.6552 45.9046C20.6985 46.3096 21.889 46.5861 23.634 46.6655C25.3827 46.745 25.9406 46.7648 30.3922 46.7648C34.8438 46.7648 35.4026 46.7463 37.1504 46.6655C38.8956 46.5861 40.0872 46.3096 41.1292 45.9046C42.2071 45.4852 43.1207 44.9253 44.033 44.015C44.9453 43.1047 45.5041 42.1901 45.9238 41.113C46.329 40.0716 46.607 38.8805 46.6851 37.1365C46.7646 35.3884 46.7831 34.8313 46.7831 30.3824C46.7831 25.9334 46.7646 25.375 46.6851 23.6283C46.6057 21.8841 46.329 20.6925 45.9238 19.6518C45.5041 18.5746 44.9439 17.6615 44.033 16.7497C43.1221 15.838 42.2071 15.2783 41.1305 14.8601C40.0872 14.4552 38.8954 14.1773 37.1517 14.0992C35.4039 14.0198 34.8451 14 30.3935 14C25.9419 14 25.3827 14.0185 23.634 14.0992Z" fill="url(#paint0_radial_186_1942)"/>
<path d="M24.929 30.3824C24.929 27.3666 27.3746 24.9211 30.3922 24.9211C33.4098 24.9211 35.8567 27.3666 35.8567 30.3824C35.8567 33.3982 33.4098 35.8436 30.3922 35.8436C27.3746 35.8436 24.929 33.3982 24.929 30.3824ZM21.975 30.3824C21.975 35.0284 25.7434 38.7945 30.3922 38.7945C35.041 38.7945 38.8094 35.0284 38.8094 30.3824C38.8094 25.7363 35.041 21.9702 30.3922 21.9702C25.7434 21.9702 21.975 25.7363 21.975 30.3824ZM37.1756 21.6367C37.1754 22.0255 37.2906 22.4056 37.5066 22.729C37.7227 23.0524 38.0298 23.3045 38.3891 23.4534C38.7485 23.6023 39.144 23.6414 39.5256 23.5657C39.9072 23.49 40.2578 23.3029 40.533 23.0281C40.8082 22.7533 40.9957 22.4031 41.0717 22.0218C41.1478 21.6404 41.109 21.2452 40.9603 20.8859C40.8115 20.5266 40.5595 20.2195 40.2361 20.0033C39.9127 19.7872 39.5325 19.6717 39.1434 19.6716H39.1426C38.6211 19.6718 38.1211 19.8789 37.7522 20.2474C37.3834 20.6158 37.176 21.1155 37.1756 21.6367V21.6367ZM23.7698 43.7172C22.1716 43.6445 21.3029 43.3785 20.7257 43.1537C19.9603 42.8559 19.4143 42.5013 18.8402 41.9283C18.266 41.3553 17.9107 40.8101 17.614 40.0452C17.389 39.4686 17.1228 38.6002 17.0501 37.003C16.9707 35.2761 16.9548 34.7574 16.9548 30.3825C16.9548 26.0076 16.972 25.4903 17.0501 23.7621C17.1229 22.1648 17.3911 21.2982 17.614 20.7198C17.912 19.9549 18.2668 19.4092 18.8402 18.8354C19.4135 18.2616 19.959 17.9065 20.7257 17.61C21.3027 17.3851 22.1716 17.1191 23.7698 17.0465C25.4976 16.967 26.0167 16.9512 30.3922 16.9512C34.7677 16.9512 35.2873 16.9684 37.0166 17.0465C38.6148 17.1192 39.482 17.3872 40.0607 17.61C40.826 17.9065 41.3721 18.2624 41.9462 18.8354C42.5203 19.4084 42.8744 19.9549 43.1724 20.7198C43.3974 21.2964 43.6636 22.1648 43.7362 23.7621C43.8157 25.4903 43.8316 26.0076 43.8316 30.3825C43.8316 34.7574 43.8157 35.2747 43.7362 37.003C43.6635 38.6002 43.3959 39.4683 43.1724 40.0452C42.8744 40.8101 42.5196 41.3558 41.9462 41.9283C41.3729 42.5007 40.826 42.8559 40.0607 43.1537C39.4837 43.3786 38.6148 43.6446 37.0166 43.7172C35.2888 43.7967 34.7697 43.8125 30.3922 43.8125C26.0147 43.8125 25.4971 43.7967 23.7698 43.7172V43.7172ZM23.634 14.0992C21.889 14.1786 20.6965 14.4552 19.6552 14.8601C18.5767 15.2783 17.6637 15.8394 16.7514 16.7497C15.8391 17.6601 15.2791 18.574 14.8607 19.6518C14.4554 20.6932 14.1787 21.8842 14.0993 23.6283C14.0185 25.375 14 25.9334 14 30.3824C14 34.8313 14.0185 35.3897 14.0993 37.1365C14.1787 38.8806 14.4554 40.0716 14.8607 41.113C15.2791 42.1901 15.8392 43.1051 16.7514 44.015C17.6636 44.9249 18.5767 45.4852 19.6552 45.9046C20.6985 46.3096 21.889 46.5861 23.634 46.6655C25.3827 46.745 25.9406 46.7648 30.3922 46.7648C34.8438 46.7648 35.4026 46.7463 37.1504 46.6655C38.8956 46.5861 40.0872 46.3096 41.1292 45.9046C42.2071 45.4852 43.1207 44.9253 44.033 44.015C44.9453 43.1047 45.5041 42.1901 45.9238 41.113C46.329 40.0716 46.607 38.8805 46.6851 37.1365C46.7646 35.3884 46.7831 34.8313 46.7831 30.3824C46.7831 25.9334 46.7646 25.375 46.6851 23.6283C46.6057 21.8841 46.329 20.6925 45.9238 19.6518C45.5041 18.5746 44.9439 17.6615 44.033 16.7497C43.1221 15.838 42.2071 15.2783 41.1305 14.8601C40.0872 14.4552 38.8954 14.1773 37.1517 14.0992C35.4039 14.0198 34.8451 14 30.3935 14C25.9419 14 25.3827 14.0185 23.634 14.0992Z" fill="url(#paint1_radial_186_1942)"/>
<defs>
<radialGradient id="paint0_radial_186_1942" cx="0" cy="0" r="1" gradientUnits="userSpaceOnUse" gradientTransform="translate(18.3556 46.9195) scale(42.7973 42.7716)">
<stop offset="0.09" stop-color="#FA8F21"/>
<stop offset="0.78" stop-color="#D82D7E"/>
</radialGradient>
<radialGradient id="paint1_radial_186_1942" cx="0" cy="0" r="1" gradientUnits="userSpaceOnUse" gradientTransform="translate(33.8823 48.3874) scale(33.7302 33.71)">
<stop offset="0.64" stop-color="#8C3AAA" stop-opacity="0"/>
<stop offset="1" stop-color="#8C3AAA"/>
</radialGradient>
</defs>
</svg>
