<svg width="733" height="132" viewBox="0 0 733 132" fill="none" xmlns="http://www.w3.org/2000/svg">
<path d="M60.079 78.84C55.279 84.12 52.039 85.44 48.679 85.44C43.279 85.44 39.559 81.12 39.559 72.6C39.559 63.24 42.679 55.2 47.119 48.72C51.079 43.08 55.639 41.04 59.359 41.04C61.999 41.04 64.279 42.12 66.079 44.88L60.079 78.84ZM79.999 36.48L78.199 35.16L67.999 40.44C65.719 36.84 62.599 35.04 58.519 35.04C52.039 35.04 44.239 38.76 38.239 46.08C32.119 53.28 27.319 63.84 27.319 74.76C27.319 87.6 33.799 93.24 42.439 93.24C49.159 93.24 55.879 89.52 60.799 82.08C62.359 88.68 67.399 93.24 76.639 93.24C89.239 93.24 106.399 80.88 106.399 55.2C106.399 29.4 89.359 11.28 61.999 11.28C26.599 11.28 0.679038 38.04 0.679038 71.76C0.679038 103.44 21.919 119.88 49.639 119.88C60.199 119.88 70.159 117.36 78.319 112.92L76.879 109.68C69.439 113.52 61.039 115.68 51.079 115.68C26.239 115.68 6.43904 99.96 6.43904 70.8C6.43904 41.28 29.119 15.48 61.039 15.48C83.959 15.48 100.999 30.96 100.999 54.36C100.999 76.56 88.399 88.8 78.559 88.8C73.039 88.8 70.879 85.44 72.559 75.72L79.999 36.48ZM141.78 19.56C147.06 19.56 151.14 15.84 151.14 10.68C151.14 5.28 147.06 1.67999 141.78 1.67999C136.62 1.67999 132.42 5.28 132.42 10.68C132.42 15.84 136.62 19.56 141.78 19.56ZM124.26 39.84V43.08L133.86 44.04C134.1 49.8 134.34 54.96 134.34 62.64V86.76C134.34 103.44 134.58 116.28 132.3 122.28C131.7 123.96 130.86 125.16 129.9 126.12L127.26 122.4C124.5 118.2 121.02 116.52 116.82 116.52C112.62 116.52 108.54 119.28 107.94 124.08C109.26 127.8 113.46 131.52 122.94 131.52C130.02 131.52 135.9 129.48 141.78 123.12C148.14 116.16 149.82 108.24 149.82 88.32V52.8L150.3 34.08L148.62 33L124.26 39.84ZM238.987 94.56V54.12L239.347 34.92L238.027 33.6L214.867 36.96V40.08L223.387 41.64L223.147 84.36C218.707 88.8 213.667 91.44 208.267 91.44C201.667 91.44 197.947 87.96 197.947 77.4V54.12L198.667 34.92L197.347 33.6L173.587 36.72V40.08L182.587 41.76L182.107 76.56C181.867 94.56 189.067 100.92 200.587 100.92C209.467 100.92 217.507 95.64 223.267 88.32L224.107 100.32L247.147 99V95.4L238.987 94.56ZM297.54 100.92C315.9 100.92 329.94 88.32 329.94 66.72C329.94 45.12 314.94 32.88 297.54 32.88C280.02 32.88 265.14 45.24 265.14 66.72C265.14 88.2 278.94 100.92 297.54 100.92ZM297.54 96.48C287.58 96.48 282.06 86.76 282.06 66.84C282.06 47.04 287.58 37.32 297.54 37.32C307.26 37.32 313.02 47.04 313.02 66.84C313.02 86.76 307.26 96.48 297.54 96.48ZM373.4 94.32C373.16 86.64 373.04 78.36 373.04 70.8V20.88L373.52 1.79999L371.84 0.719992L347.72 5.88V9.24L357.44 9.95999V70.8C357.44 78.36 357.32 86.64 357.08 94.2L347.84 95.28V99H382.64V95.28L373.4 94.32ZM416.79 19.56C421.95 19.56 426.27 15.84 426.27 10.68C426.27 5.28 421.95 1.67999 416.79 1.67999C411.63 1.67999 407.31 5.28 407.31 10.68C407.31 15.84 411.63 19.56 416.79 19.56ZM425.31 94.32C425.19 87.48 425.07 77.4 425.07 70.8V52.8L425.31 34.08L423.63 33L399.27 39.84V43.08L408.99 44.04C409.23 50.04 409.35 54.6 409.35 62.28V70.8C409.35 77.4 409.23 87.36 409.11 94.2L400.35 95.28V99H433.35V95.28L425.31 94.32ZM517.195 94.32C517.075 87.48 516.955 77.64 516.955 70.8V56.16C516.955 40.08 509.875 32.88 498.595 32.88C490.795 32.88 483.355 36.24 475.795 45L474.955 34.08L473.275 33L450.235 40.32V43.32L459.715 44.28C460.075 50.04 460.195 54.36 460.195 62.16V70.8C460.195 77.4 460.075 87.36 459.955 94.2L451.195 95.28V99H484.075V95.28L476.275 94.32C476.155 87.48 476.035 77.4 476.035 70.8V49.2C481.915 43.8 487.315 41.4 491.755 41.4C498.235 41.4 501.235 45 501.235 55.44V70.8C501.235 77.64 501.115 87.48 500.875 94.2L492.475 95.28V99H525.355V95.28L517.195 94.32ZM567.552 94.32C567.312 86.64 567.192 78.36 567.192 70.8V20.88L567.672 1.79999L565.992 0.719992L541.872 5.88V9.24L551.592 9.95999V70.8C551.592 78.36 551.472 86.64 551.232 94.2L541.992 95.28V99H576.792V95.28L567.552 94.32ZM611.422 62.16C612.142 44.64 618.742 37.32 626.302 37.32C633.622 37.32 638.782 43.56 638.782 53.28C638.782 59.4 637.462 62.16 631.942 62.16H611.422ZM652.942 66.6C653.542 64.56 653.782 62.28 653.782 59.16C653.782 44.04 643.822 32.88 627.382 32.88C610.582 32.88 594.742 45.24 594.742 66.84C594.742 88.68 608.422 100.92 627.262 100.92C639.142 100.92 648.262 95.28 653.062 85.44L650.662 83.76C646.462 89.4 641.302 93 632.662 93C621.022 93 611.902 84.96 611.422 66.6H652.942ZM689.811 62.16C690.531 44.64 697.131 37.32 704.691 37.32C712.011 37.32 717.171 43.56 717.171 53.28C717.171 59.4 715.851 62.16 710.331 62.16H689.811ZM731.331 66.6C731.931 64.56 732.171 62.28 732.171 59.16C732.171 44.04 722.211 32.88 705.771 32.88C688.971 32.88 673.131 45.24 673.131 66.84C673.131 88.68 686.811 100.92 705.651 100.92C717.531 100.92 726.651 95.28 731.451 85.44L729.051 83.76C724.851 89.4 719.691 93 711.051 93C699.411 93 690.291 84.96 689.811 66.6H731.331Z" fill="#FDD2A8"/>
</svg>
