<svg width="92" height="842" viewBox="0 0 92 842" fill="none" xmlns="http://www.w3.org/2000/svg">
<path d="M84 57.16L65.52 61.72V68.2L89.04 68.08V0.4H84.72L83.64 11.8C71.52 12.04 59.4 12.04 47.4 12.04H41.52C29.28 12.04 17.16 12.04 5.28 11.8L4.2 0.4L0 0.4V41.92H4.2L5.4 29.08C17.4 28.72 29.76 28.72 43.08 28.72V47.08L29.52 48.88V54.52H60.72V48.88L47.64 47.08V28.72C60.24 28.72 72.24 28.72 84 29.08V57.16ZM44.52 104.763C67.56 104.763 86.28 112.203 86.28 128.283C86.28 144.363 67.56 151.923 44.52 151.923C21.12 151.923 2.64 144.363 2.64 128.283C2.64 112.203 21.12 104.763 44.52 104.763ZM91.2 128.283C91.2 106.563 74.52 86.7634 44.52 86.7634C13.92 86.7634 -2.28 106.443 -2.28 128.283C-2.28 150.123 14.4 169.683 44.52 169.683C74.88 169.683 91.2 150.123 91.2 128.283ZM25.92 249.667L4.92 244.507V217.147C17.04 216.787 29.16 216.787 40.32 216.787H48.36C59.64 216.787 71.64 216.787 83.52 217.147L84.72 229.147H89.04V188.467H84.72L83.64 199.867C71.52 200.107 59.4 200.107 47.4 200.107H39.36C29.04 200.107 17.16 200.107 5.28 199.867L4.2 188.587L0 188.467V255.907L25.92 256.147V249.667ZM25.92 335.908L4.92 330.748V303.388C17.04 303.028 29.16 303.028 40.32 303.028H48.36C59.64 303.028 71.64 303.028 83.52 303.388L84.72 315.388H89.04L89.04 274.708H84.72L83.64 286.108C71.52 286.348 59.4 286.348 47.4 286.348H39.36C29.04 286.348 17.16 286.348 5.28 286.108L4.2 274.828L0 274.708V342.148L25.92 342.388V335.908ZM44.52 378.954C67.56 378.954 86.28 386.394 86.28 402.474C86.28 418.554 67.56 426.114 44.52 426.114C21.12 426.114 2.64 418.554 2.64 402.474C2.64 386.394 21.12 378.954 44.52 378.954ZM91.2 402.474C91.2 380.754 74.52 360.954 44.52 360.954C13.92 360.954 -2.28 380.634 -2.28 402.474C-2.28 424.314 14.4 443.874 44.52 443.874C74.88 443.874 91.2 424.314 91.2 402.474ZM89.04 585.323V556.163H84.72L83.16 567.803L19.08 551.123L83.28 532.403L84.72 545.363H89.04V507.923H84.72L83.28 519.923L19.56 500.963L83.52 484.163L84.72 495.803H89.04V457.523H84.72L83.76 466.763L-0.48 491.243V500.003L68.04 520.643L-0.48 542.003V550.643L83.16 574.043L84.72 585.323H89.04ZM84.72 750.907H89.04L89.04 722.107L21.36 696.187L89.04 669.547V640.267H84.72L83.16 652.867L5.64 652.387L4.2 639.667H0V670.867H4.2L5.64 658.267H43.92C48.96 658.267 64.92 658.027 76.92 657.667L0 687.787V693.667L77.4 722.947L39.6 722.707C29.16 722.467 17.16 722.707 5.28 722.347L4.2 711.307H0V750.907H4.2L5.28 739.387C17.28 739.267 29.4 739.267 41.52 739.267H47.4C59.4 739.267 71.52 739.267 83.64 739.387L84.72 750.907ZM24.12 834.542L4.92 829.862L4.92 799.982C17.16 799.622 29.52 799.622 43.08 799.622L43.08 817.742L30.48 819.422V825.062H60.72V819.422L47.64 817.622L47.64 799.622C60.24 799.622 72.24 799.622 84 799.982V827.462L65.52 832.022V838.502L89.04 838.382V771.302H84.72L83.64 782.702C71.52 782.942 59.4 782.942 47.4 782.942H41.52C29.28 782.942 17.16 782.942 5.28 782.702L4.2 771.302H0L0 840.782L24.12 841.142V834.542Z" fill="#FDD2A8"/>
</svg>
