<svg width="104" height="862" viewBox="0 0 104 862" fill="none" xmlns="http://www.w3.org/2000/svg">
<path d="M102.617 50.8783V74.2427H32.0646C25.543 74.2427 19.8778 72.6232 15.0689 69.3842C10.26 66.1816 6.55455 61.7234 3.95249 56.0097C1.35043 50.296 0.049408 43.6542 0.049408 36.0844C0.049408 29.3517 1.11987 23.2376 3.26081 17.7423C5.43468 12.2833 8.72842 7.95252 13.142 4.74992C17.5886 1.54732 23.1715 -0.0357798 29.8907 0.000613367V23.5288C27.2228 23.6016 24.9336 24.2021 23.0233 25.3303C21.1458 26.4948 19.6966 28.0779 18.6755 30.0796C17.6874 32.1176 17.1933 34.5195 17.1933 37.2854C17.1933 40.1969 17.7533 42.6534 18.8732 44.655C20.026 46.693 21.7058 48.2398 23.9126 49.2952C26.1194 50.3506 28.8367 50.8783 32.0646 50.8783L102.617 50.8783Z" fill="#FDD2A8"/>
<path d="M102.617 162.842V186.479H36.9064C29.5284 186.479 23.0727 184.532 17.5392 180.638C12.0057 176.78 7.6909 171.376 4.59478 164.425C1.5316 157.474 0 149.376 0 140.132C0 130.852 1.5316 122.737 4.59478 115.785C7.6909 108.834 12.0057 103.43 17.5392 99.5723C23.0727 95.7146 29.5284 93.7858 36.9064 93.7858H102.617V117.423H38.7344C34.8808 117.423 31.4553 118.351 28.458 120.207C25.4607 122.1 23.1056 124.756 21.3929 128.177C19.6801 131.598 18.8237 135.583 18.8237 140.132C18.8237 144.718 19.6801 148.703 21.3929 152.088C23.1056 155.509 25.4607 158.147 28.458 160.003C31.4553 161.896 34.8808 162.842 38.7344 162.842H102.617Z" fill="#FDD2A8"/>
<path d="M52.0247 308.665C40.9907 308.665 31.6035 306.354 23.8632 301.732C16.1229 297.146 10.2106 290.887 6.12637 282.953C2.07506 275.056 0.049408 266.176 0.049408 256.313C0.049408 246.378 2.09153 237.461 6.17577 229.564C10.26 221.667 16.1723 215.425 23.9126 210.84C31.6529 206.254 41.0236 203.962 52.0247 203.962C63.0587 203.962 72.4459 206.254 80.1862 210.84C87.9265 215.425 93.8223 221.667 97.8736 229.564C101.958 237.461 104 246.378 104 256.313C104 266.176 101.958 275.056 97.8736 282.953C93.8223 290.887 87.9265 297.146 80.1862 301.732C72.4459 306.354 63.0587 308.665 52.0247 308.665ZM52.0247 284.7C59.1721 284.7 65.1997 283.517 70.1074 281.151C75.015 278.822 78.737 275.529 81.2732 271.271C83.8093 267.013 85.0774 262.027 85.0774 256.313C85.0774 250.599 83.8093 245.614 81.2732 241.356C78.737 237.098 75.015 233.786 70.1074 231.42C65.1997 229.091 59.1721 227.926 52.0247 227.926C44.8773 227.926 38.8497 229.091 33.942 231.42C29.0344 233.786 25.3124 237.098 22.7763 241.356C20.2401 245.614 18.972 250.599 18.972 256.313C18.972 262.027 20.2401 267.013 22.7763 271.271C25.3124 275.529 29.0344 278.822 33.942 281.151C38.8497 283.517 44.8773 284.7 52.0247 284.7Z" fill="#FDD2A8"/>
<path d="M1.43278 326.174H102.617L102.617 349.812H19.0708V397.742H1.43278L1.43278 326.174Z" fill="#FDD2A8"/>
<path d="M102.617 437.033H1.43278V413.395H102.617V437.033Z" fill="#FDD2A8"/>
<path d="M102.617 549.992H1.43278V529.576L65.1173 480.936V480.117H1.43278V456.48H102.617V477.224L38.9815 525.482V526.464H102.617V549.992Z" fill="#FDD2A8"/>
<path d="M1.43278 605.101H102.617V628.738H19.0708V676.668H1.43278V605.101Z" fill="#FDD2A8"/>
<path d="M1.43278 692.321H102.617V767.655H84.9786V715.959H60.8684L60.8684 763.779H43.2304L43.2304 715.959H19.0708V767.874H1.43278V692.321Z" fill="#FDD2A8"/>
<path d="M1.43278 786.448H102.617L102.617 861.782H84.9786V810.085H60.8684V857.906H43.2304V810.085H19.0708L19.0708 862H1.43278L1.43278 786.448Z" fill="#FDD2A8"/>
</svg>
