<svg width="233" height="57" viewBox="0 0 233 57" fill="none" xmlns="http://www.w3.org/2000/svg">
<path d="M47.112 16.168H54.696L55.56 23.368C58.056 23.368 60.168 22.936 60.936 21.88L60.216 16.168H68.712C69.384 16.168 69.864 15.928 70.008 15.4C68.136 13.576 64.968 10.84 64.968 10.84L62.136 14.776H60.024L59.448 10.024C60.456 9.784 60.792 9.304 60.84 8.68L53.784 8.2L54.552 14.776H46.728L47.112 16.168ZM77.544 37.096V48.088H63.288V37.096H77.544ZM81.96 27.304H68.04C68.808 26.008 69.576 24.712 70.2 23.416C71.4 23.512 71.88 23.176 72.12 22.648L64.824 19.624C64.056 22.072 63 24.664 61.656 27.304H47.688L48.12 28.696H60.936C57.624 34.6 52.872 40.504 46.824 44.584L47.208 45.112C51.24 43.48 54.696 41.416 57.72 38.968V53.224H58.776C61.56 53.224 63.288 51.976 63.288 51.592V49.48H77.544V53.032H78.504C80.328 53.032 83.16 52.024 83.208 51.688V38.008C84.216 37.816 84.84 37.384 85.128 37L79.656 32.824L77.064 35.704H63.912L62.088 34.984C64.008 32.968 65.736 30.856 67.128 28.696H89.208C89.88 28.696 90.408 28.456 90.504 27.928C88.488 26.056 85.032 23.368 85.032 23.368L81.96 27.304ZM84.168 14.776H82.008L82.68 10.696C83.928 10.696 84.312 10.168 84.504 9.64L77.544 8.152L76.488 14.776H70.728L71.112 16.168H76.248L75.24 22.648C77.544 23.128 79.752 22.792 80.808 22.024L81.768 16.168H90.696C91.416 16.168 91.896 15.928 92.04 15.4C90.168 13.576 87 10.84 87 10.84L84.168 14.776ZM122.328 30.76C122.328 27.832 119.928 25.432 117 25.432C114.072 25.432 111.672 27.832 111.672 30.76C111.672 33.688 114.072 36.088 117 36.088C119.928 36.088 122.328 33.688 122.328 30.76ZM179.64 16.696C181.32 15.688 183.384 14.104 185.064 12.664C186.072 12.76 186.696 12.376 186.936 11.848L181.176 9.496C180.456 11.992 179.592 14.632 178.92 16.264L179.64 16.696ZM163.656 17.896L164.04 19.288H172.728V21.784L167.544 19.816C166.632 22.552 164.856 26.152 163.32 28.264L163.8 28.648C166.824 27.064 169.896 24.568 172.056 22.552C172.296 22.6 172.536 22.648 172.728 22.696V30.184H173.592C175.416 30.184 177.528 29.32 177.528 28.888V19.288H185.976C186.6 19.288 187.08 19.048 187.224 18.52C185.64 17.08 183.096 15.16 183.096 15.16L180.792 17.896H177.528V10.456C178.824 10.264 179.208 9.784 179.304 9.112L172.728 8.488V17.896H163.656ZM178.344 21.496C180.84 23.224 182.808 25.864 184.056 27.832C188.28 30.184 189.96 21.016 178.68 20.968L178.344 21.496ZM164.664 10.12C165.72 11.56 166.68 13.96 166.728 15.976C170.424 19.24 175.224 12.088 165.144 9.832L164.664 10.12ZM149.64 8.728C150.696 9.832 151.992 11.8 152.328 13.48C156.552 16.216 160.44 8.392 150.024 8.44L149.64 8.728ZM150.072 15.592V20.488H148.296V15.592H150.072ZM154.92 20.488H153.048V15.592H154.92V20.488ZM159.624 21.832V29.032H157.896V21.832H159.624ZM153.048 21.832H154.92V29.032H153.048V21.832ZM148.296 21.832H150.072V29.032H148.296V21.832ZM159.624 30.376V31.576H160.2C161.352 31.576 163.128 30.856 163.176 30.52V22.168C163.848 22.024 164.376 21.736 164.616 21.448L160.968 18.664L159.24 20.488H157.896V15.592H163.656C164.328 15.592 164.808 15.352 164.952 14.824C163.224 13.24 160.44 11.128 160.44 11.128L157.992 14.248H149.016L144.216 12.376V29.416C144.216 37.144 144.408 45.544 141.96 52.024L142.632 52.408C148.104 46.312 148.296 37.576 148.296 30.376H159.624ZM163.08 44.488C161.784 44.872 160.44 45.256 159.24 45.544V39.304H161.544C162.168 39.304 162.6 39.064 162.696 38.584C161.928 37.384 160.44 35.752 160.44 35.752L159.24 37.816V33.496C160.056 33.352 160.392 32.968 160.488 32.44L155.832 31.912V38.152C155.064 37.096 153.864 35.8 153.864 35.8L152.712 37.816H152.664V33.304C153.576 33.16 153.912 32.824 154.008 32.296L149.304 31.768V44.92C149.304 45.736 149.064 46.024 147.72 46.744L149.688 50.968C150.216 50.728 150.888 50.152 151.176 49.192C152.856 47.608 154.536 46.024 155.112 45.304L154.92 44.68C154.152 44.92 153.384 45.16 152.664 45.4V39.16H154.872C155.304 39.16 155.64 39.064 155.832 38.824V45.064C155.832 45.88 155.592 46.216 154.248 46.888L156.168 51.112C156.6 50.92 157.176 50.44 157.512 49.768C159.912 47.896 162.264 45.976 163.224 45.064L163.08 44.488ZM177.048 43.672C177.576 40.936 178.248 37.048 178.584 34.6H179.736V43.672H177.048ZM170.328 34.312C170.136 36.04 169.848 37.72 169.464 39.4C168.792 38.728 167.688 38.152 165.96 37.96C166.632 36.808 167.256 35.608 167.832 34.312H170.328ZM183.816 43.288V34.6H186.792C187.464 34.6 187.848 34.36 187.992 33.832C186.936 32.632 185.16 31.096 185.16 31.096L183.816 33.016V30.04C184.728 29.848 185.016 29.512 185.112 28.984L179.736 28.456V33.208H174.696L171.96 30.904L169.944 32.968H168.408C168.744 32.008 169.08 31 169.416 29.992C170.472 29.992 170.952 29.512 171.144 28.936L165.864 27.64C165.144 33.112 163.464 38.584 161.448 42.28L162.168 42.712C163.224 41.704 164.184 40.552 165.096 39.256C166.104 40.264 166.968 41.464 167.256 42.616C167.64 42.856 168.072 42.952 168.408 42.952C167.064 46.648 164.952 50.008 161.688 52.552L162.12 53.272C169.752 49 172.632 41.992 173.928 34.792C174.312 34.744 174.6 34.696 174.888 34.6C174.6 36.904 173.928 40.792 173.448 43.336C173.016 43.576 172.632 43.864 172.344 44.152L175.992 46.168L177.048 45.016H179.736V53.224H180.552C181.992 53.224 183.816 52.408 183.816 51.976V45.016H186.984C187.608 45.016 188.04 44.776 188.184 44.248C187.032 43.048 185.16 41.368 185.16 41.368L183.816 43.288Z" fill="#D98A3B"/>
</svg>
